<mxfile host="app.diagrams.net" agent="Mozilla/5.0 (X11; CrOS x86_64 14541.0.0) AppleWebKit/537.36 (KHTML, like Gecko) Chrome/134.0.0.0 Safari/537.36" version="26.1.2">
  <diagram name="PÃ¡gina-1" id="urwR7elvmIBYC7lSt16k">
    <mxGraphModel dx="1173" dy="613" grid="1" gridSize="10" guides="1" tooltips="1" connect="1" arrows="1" fold="1" page="1" pageScale="1" pageWidth="827" pageHeight="1169" math="0" shadow="0">
      <root>
        <mxCell id="0" />
        <mxCell id="1" parent="0" />
        <mxCell id="Bf3SNy6qPXYhZN4DVAe--1" value="Sung jin Woo" style="rounded=1;whiteSpace=wrap;html=1;" vertex="1" parent="1">
          <mxGeometry x="160" y="50" width="170" height="80" as="geometry" />
        </mxCell>
        <mxCell id="Bf3SNy6qPXYhZN4DVAe--2" value="Ser Absoluto" style="rounded=1;whiteSpace=wrap;html=1;" vertex="1" parent="1">
          <mxGeometry x="360" y="50" width="170" height="80" as="geometry" />
        </mxCell>
        <mxCell id="Bf3SNy6qPXYhZN4DVAe--3" value="Atares idk" style="rounded=1;whiteSpace=wrap;html=1;" vertex="1" parent="1">
          <mxGeometry x="570" y="50" width="170" height="80" as="geometry" />
        </mxCell>
        <mxCell id="Bf3SNy6qPXYhZN4DVAe--4" value="Atributos" style="rounded=1;whiteSpace=wrap;html=1;" vertex="1" parent="1">
          <mxGeometry y="250" width="120" height="60" as="geometry" />
        </mxCell>
        <mxCell id="Bf3SNy6qPXYhZN4DVAe--5" value="Caracteristicas" style="rounded=1;whiteSpace=wrap;html=1;" vertex="1" parent="1">
          <mxGeometry x="150" y="250" width="110" height="60" as="geometry" />
        </mxCell>
        <mxCell id="Bf3SNy6qPXYhZN4DVAe--7" value="Atributos" style="rounded=1;whiteSpace=wrap;html=1;" vertex="1" parent="1">
          <mxGeometry x="330" y="250" width="120" height="60" as="geometry" />
        </mxCell>
        <mxCell id="Bf3SNy6qPXYhZN4DVAe--8" value="Caracteristicas" style="rounded=1;whiteSpace=wrap;html=1;" vertex="1" parent="1">
          <mxGeometry x="480" y="250" width="110" height="60" as="geometry" />
        </mxCell>
      </root>
    </mxGraphModel>
  </diagram>
</mxfile>
